# xmcd CD database file
#
# Track frame offsets:
#	150
#	22350
#	39450
#	57675
#	77550
#	93750
#	113400
#	127125
#	148725
#	173625
#
# Disc length: 2547 seconds
#
# Revision: 0
# Processed by: cddbd v1.5.2PL0 Copyright (c) Steve Scherf et al.
# Submitted via: CDex 1.51
#
DISCID=8609f10a
DTITLE=Andreas Behringer - Fairly Old Songs
DYEAR=2010
DGENRE=Jazz
TTITLE0=How deep is the ocean
TTITLE1=meditation
TTITLE2=Joyspring
TTITLE3=A child is born
TTITLE4=Medley Abba
TTITLE5=Mercy mercy mercy
TTITLE6=As time goes by
TTITLE7=Medley Beatles
TTITLE8=Beautiful love
TTITLE9=Krekel
EXTD=YEAR: 2010
EXTT0=
EXTT1=
EXTT2=
EXTT3=
EXTT4=
EXTT5=
EXTT6=
EXTT7=
EXTT8=
EXTT9=
PLAYORDER=
